<?xml version="1.0" encoding="utf-8"?>
<!-- Generator: Adobe Illustrator 23.0.3, SVG Export Plug-In . SVG Version: 6.00 Build 0)  -->
<svg version="1.1" id="Layer_1" xmlns="http://www.w3.org/2000/svg" xmlns:xlink="http://www.w3.org/1999/xlink" x="0px" y="0px"
	 viewBox="0 0 640 480" style="enable-background:new 0 0 640 480;" xml:space="preserve">
<style type="text/css">
	.st0{clip-path:url(#SVGID_2_);}
	.st1{clip-path:url(#SVGID_4_);}
	.st2{fill:none;stroke:#000000;stroke-miterlimit:10;}
	.st3{fill:#FFFFFF;}
	.st4{font-family:'AgencyFB-Reg';}
	.st5{font-size:250px;}
	.st6{fill:#00A2E4;}
	.st7{fill:#21B5E4;}
	.st8{fill:#21CAE4;}
	.st9{fill:#21DEE4;}
</style>
<g>
	<g>
		<g>
			<g>
				<defs>
					<rect id="SVGID_1_" x="0.5" y="0.5" width="640" height="479"/>
				</defs>
				<clipPath id="SVGID_2_">
					<use xlink:href="#SVGID_1_"  style="overflow:visible;"/>
				</clipPath>
				<g class="st0">
					<g>
						<g>
							<defs>
								<rect id="SVGID_3_" x="-4.5" y="-4.5" width="650" height="489"/>
							</defs>
							<clipPath id="SVGID_4_">
								<use xlink:href="#SVGID_3_"  style="overflow:visible;"/>
							</clipPath>
							<g class="st1">
								
									<image style="overflow:visible;enable-background:new    ;" width="1356" height="1021" xlink:href="C5527285.jpg"  transform="matrix(0.4795 0 0 0.4795 -10.2425 0.5)">
								</image>
							</g>
						</g>
					</g>
				</g>
			</g>
		</g>
		<rect x="0.5" y="0.5" class="st2" width="640" height="479"/>
	</g>
</g>
<g id="Layer_3">
	<g>
		<text transform="matrix(1 0 0 1 9.5508 462.2244)" class="st3 st4 st5">URSA</text>
	</g>
	<g>
		<text transform="matrix(1 0 0 1 9.5508 462.2244)" class="st6 st4 st5">U</text>
		<text transform="matrix(1 0 0 1 119.2908 462.2244)" class="st7 st4 st5">R</text>
		<text transform="matrix(1 0 0 1 225.9808 462.2244)" class="st8 st4 st5">S</text>
		<text transform="matrix(1 0 0 1 330.4708 462.2244)" class="st9 st4 st5">A</text>
	</g>
	<g>
		<g>
			<path d="M103,272.2v176.5c0,3.7-1.2,6.7-3.6,9c-2.4,2.4-5.4,3.5-9.1,3.5h-52c-3.8,0-6.7-1.1-9.1-3.5c-2.3-2.4-3.5-5.3-3.5-9.1
				V272.2h15v175v1h1h45.3h1v-1v-175H103 M104,271.2h-17v176H41.8v-176h-17v177.5c0,4,1.3,7.2,3.8,9.8c2.5,2.5,5.8,3.8,9.8,3.8h52
				c4,0,7.3-1.3,9.8-3.8c2.6-2.5,3.8-5.8,3.8-9.8L104,271.2L104,271.2z"/>
			<path d="M198.5,272.2c3.7,0,6.7,1.1,9.1,3.5c2.4,2.4,3.5,5.3,3.5,9.1v72.5c0,8.6-5.7,12.8-17.6,12.8c-1.2,0-3-0.1-5.3-0.2
				c-2.4-0.1-4.1-0.2-5.2-0.2h-1.4l0.5,1.3c10.7,29.6,21.6,59.9,32.4,90.2h-15.7l-35.1-101.1l1.7-2.6h29.7h1v-1v-70.3v-1h-1h-43.6
				h-1v1v175h-15V272.2H198.5 M198.5,271.2h-64v191h17v-176h43.6v70.3h-30.3l-2.3,3.4L198,462.2h17.8
				c-10.9-30.6-21.9-61.1-32.8-91.5c1.1,0,2.8,0.1,5.1,0.2s4.1,0.2,5.4,0.2c12.4,0,18.6-4.6,18.6-13.8v-72.5c0-4-1.3-7.2-3.8-9.8
				C205.8,272.5,202.5,271.2,198.5,271.2L198.5,271.2z"/>
			<path d="M302.3,272.2c3.7,0,6.7,1.1,9,3.5c2.3,2.4,3.4,5.3,3.4,9.1v43.4h-15v-42v-1h-1h-41.3h-1v1v40.3v0.4l0.2,0.3l53,63.7
				c3.3,4,5,8.6,5,13.6v44.2c0,3.8-1.1,6.7-3.4,9.1c-2.3,2.4-5.3,3.5-9,3.5h-48.1c-3.8,0-6.7-1.1-9.1-3.5c-2.4-2.4-3.6-5.3-3.6-9
				v-47.5h15v46v1h1h41.3h1v-1v-45.5v-0.4l-0.2-0.3l-52.7-63.7c-3.5-4.2-5.3-8.9-5.3-13.9v-38.7c0-3.7,1.2-6.7,3.6-9
				c2.4-2.4,5.4-3.5,9.1-3.5L302.3,272.2 M302.3,271.2h-48.1c-4,0-7.3,1.3-9.8,3.8c-2.6,2.5-3.8,5.8-3.8,9.8v38.7
				c0,5.3,1.8,10.1,5.5,14.5l52.7,63.7v45.5h-41.3v-47h-17v48.5c0,4,1.3,7.2,3.8,9.8c2.6,2.5,5.8,3.8,9.8,3.8h48.1
				c4,0,7.2-1.3,9.7-3.8s3.7-5.8,3.7-9.8v-44.2c0-5.3-1.8-10-5.3-14.3l-53-63.7v-40.3h41.3v43h17v-44.4c0-4-1.2-7.2-3.7-9.8
				C309.5,272.5,306.3,271.2,302.3,271.2L302.3,271.2z"/>
			<path d="M388.1,271.7l33.5,189.5h-14.8l-6.6-41.6l-0.1-0.8h-0.9h-38h-0.9l-0.1,0.8l-6.6,41.6h-14.4l33.8-189.5L388.1,271.7
				 M362.3,405.7h1.2H397h1.2l-0.2-1.2l-16.7-103.5l-1-6.1l-1,6.1l-16.9,103.5L362.3,405.7 M389,270.7h-16.7l-34.1,191v0.5h16.4
				l6.7-42.5h38l6.7,42.5h16.9L389,270.7L389,270.7z M363.4,404.7l16.9-103.5L397,404.7H363.4L363.4,404.7z"/>
		</g>
	</g>
</g>
</svg>
